<svg width="414" height="352" viewBox="0 0 414 352" fill="none" xmlns="http://www.w3.org/2000/svg">
<path d="M88.4546 352C98.2799 324.959 74.3973 303.491 61.2278 296.138L207 349.286C146.924 327.383 102.938 341.969 88.4546 352Z" fill="#D9D9D9"/>
<path d="M88.4546 352C98.2799 324.959 74.3973 303.491 61.2278 296.138L207 349.286C146.924 327.383 102.938 341.969 88.4546 352Z" fill="white"/>
<path d="M325.545 352C315.72 324.959 339.603 303.491 352.772 296.138L207 349.286C267.076 327.383 311.062 341.969 325.545 352Z" fill="#D9D9D9"/>
<path d="M325.545 352C315.72 324.959 339.603 303.491 352.772 296.138L207 349.286C267.076 327.383 311.062 341.969 325.545 352Z" fill="white"/>
<path d="M207 0C201.643 33.3679 174.858 100.104 110.575 100.104C142.716 122.934 207 204.422 207 347.729C207 204.422 271.284 122.934 303.425 100.104C239.142 100.104 212.357 33.3679 207 0Z" fill="#D9D9D9"/>
<path d="M207 0C201.643 33.3679 174.858 100.104 110.575 100.104C142.716 122.934 207 204.422 207 347.729C207 204.422 271.284 122.934 303.425 100.104C239.142 100.104 212.357 33.3679 207 0Z" fill="white"/>
<path d="M0 140.577C16.4566 163.38 39.9087 218.464 2.06424 256.374C34.4041 250.859 120.139 260.923 204.36 345.289C120.139 260.923 110.093 175.04 115.598 142.645C77.7532 180.554 22.764 157.062 0 140.577Z" fill="#D9D9D9"/>
<path d="M0 140.577C16.4566 163.38 39.9087 218.464 2.06424 256.374C34.4041 250.859 120.139 260.923 204.36 345.289C120.139 260.923 110.093 175.04 115.598 142.645C77.7532 180.554 22.764 157.062 0 140.577Z" fill="white"/>
<path d="M414 140.577C391.236 157.062 336.247 180.554 298.402 142.645C303.907 175.04 293.861 260.922 209.64 345.288C293.861 260.922 379.596 250.859 411.936 256.373C374.091 218.464 397.543 163.38 414 140.577Z" fill="#D9D9D9"/>
<path d="M414 140.577C391.236 157.062 336.247 180.554 298.402 142.645C303.907 175.04 293.861 260.922 209.64 345.288C293.861 260.922 379.596 250.859 411.936 256.373C374.091 218.464 397.543 163.38 414 140.577Z" fill="white"/>
</svg>
