<svg width="159" height="18" viewBox="0 0 159 18" fill="none" xmlns="http://www.w3.org/2000/svg">
<path d="M0 17.6332V0.340612H2.37579V8.38428C3.51204 8.22707 4.54499 7.88646 5.47465 7.36245C6.40431 6.83843 7.21345 6.20087 7.90209 5.44978C8.60794 4.68122 9.17606 3.86026 9.60646 2.9869C10.0369 2.09607 10.3037 1.21397 10.407 0.340612H12.9894C12.8172 1.33624 12.5073 2.29694 12.0597 3.22271C11.6293 4.14847 11.0784 4.99563 10.407 5.76419C9.73558 6.53275 8.98669 7.19651 8.16033 7.75546C7.33396 8.31441 6.44735 8.72489 5.50047 8.9869V9.17031C6.56786 9.15284 7.47169 9.26638 8.21197 9.51092C8.95226 9.75546 9.56342 10.0961 10.0455 10.5328C10.5447 10.952 10.9493 11.4585 11.2592 12.0524C11.5691 12.6463 11.8273 13.2838 12.0339 13.9651L13.1443 17.6332H10.5619L9.81305 14.7249C9.57203 13.7642 9.22771 12.9694 8.7801 12.3406C8.3497 11.7118 7.75575 11.2402 6.99825 10.9258C6.24076 10.5939 5.21641 10.4279 3.92522 10.4279H2.37579V17.6332H0Z" fill="white"/>
<path d="M13.3973 17.6332L19.4143 0.340612H22.6164L28.6334 17.6332H26.0768L21.067 2.41048H20.912L15.9539 17.6332H13.3973ZM16.1863 13.8079V11.9214H26.1026V13.8079H16.1863Z" fill="white"/>
<path d="M29.5451 17.6332V0.340612H31.9209V17.6332H29.5451ZM30.8363 17.6332V15.5371H41.1658V17.6332H30.8363ZM30.8363 9.87773V7.88646H39.9521V9.87773H30.8363ZM30.8363 2.43668V0.340612H41.1658V2.43668H30.8363Z" fill="white"/>
<path d="M43.754 17.6332V15.5371H48.5831C49.6677 15.5371 50.5801 15.2751 51.3204 14.7511C52.0607 14.2271 52.6202 13.476 52.9989 12.4978C53.3949 11.5197 53.5929 10.3668 53.5929 9.0393C53.5929 8.06114 53.4896 7.17031 53.283 6.36681C53.0936 5.56332 52.7751 4.86463 52.3275 4.27074C51.8971 3.67686 51.3118 3.22271 50.5715 2.9083C49.8484 2.59389 48.9618 2.43668 47.9117 2.43668H43.754V0.340612H47.8342C49.7451 0.340612 51.3032 0.681223 52.5083 1.36244C53.7134 2.04367 54.6 3.02183 55.1681 4.29694C55.7535 5.55459 56.0462 7.05677 56.0462 8.80349C56.0462 10.1659 55.8998 11.345 55.6072 12.3406C55.3317 13.3188 54.9443 14.1485 54.4451 14.8297C53.9458 15.5109 53.3777 16.0611 52.7407 16.4804C52.1037 16.8821 51.4323 17.179 50.7264 17.3712C50.0206 17.5459 49.3234 17.6332 48.6347 17.6332H43.754ZM42.5145 17.6332V0.340612H44.8903V17.6332H42.5145Z" fill="white"/>
<path d="M57.6527 17.6332V0.340612H60.0285V17.6332H57.6527ZM58.9439 17.6332V15.5371H69.2734V17.6332H58.9439ZM58.9439 9.87773V7.88646H68.0597V9.87773H58.9439ZM58.9439 2.43668V0.340612H69.2734V2.43668H58.9439Z" fill="white"/>
<path d="M71.9133 11.9476V9.90393H76.0193C77.5687 9.90393 78.748 9.60699 79.5571 9.0131C80.3663 8.40175 80.7708 7.43231 80.7708 6.1048C80.7708 4.86463 80.4007 3.93886 79.6604 3.32751C78.9201 2.69869 77.7925 2.38428 76.2775 2.38428H71.9133V0.340612H76.5616C77.5257 0.340612 78.4123 0.462882 79.2214 0.707424C80.0306 0.951965 80.7278 1.31878 81.3131 1.80786C81.9157 2.27948 82.3805 2.8821 82.7076 3.61572C83.0347 4.34935 83.1983 5.20524 83.1983 6.18341C83.1983 7.40611 82.9228 8.45415 82.3719 9.32751C81.821 10.1834 80.9946 10.8384 79.8928 11.2926C78.8082 11.7293 77.431 11.9476 75.761 11.9476H71.9133ZM70.6221 17.6332V0.340612H72.9979V17.6332H70.6221Z" fill="white"/>
<path d="M84.4237 17.6332V0.340612H90.4148C91.2067 0.340612 91.9384 0.410481 92.6098 0.550219C93.2985 0.689956 93.9097 0.899563 94.4433 1.17904C94.977 1.45852 95.4333 1.80786 95.812 2.22708C96.1908 2.62882 96.4834 3.10917 96.69 3.66812C96.8966 4.20961 96.9999 4.82096 96.9999 5.50218C96.9999 6.00873 96.9224 6.51528 96.7675 7.02183C96.6125 7.52838 96.3543 7.99127 95.9928 8.41048C95.6312 8.81223 95.1406 9.15284 94.5208 9.43231C93.901 9.69432 93.1263 9.85153 92.1967 9.90393V10.1397C93.1435 10.1921 93.901 10.393 94.4692 10.7424C95.0373 11.0742 95.4849 11.5459 95.812 12.1572C96.1563 12.7511 96.4404 13.4847 96.6642 14.3581L97.5164 17.6332H94.9598L94.2884 14.6725C94.1335 13.9913 93.9097 13.3886 93.617 12.8646C93.3415 12.3231 92.9369 11.9039 92.4033 11.607C91.8696 11.2926 91.1379 11.1354 90.2082 11.1354H86.7995V17.6332H84.4237ZM86.7995 9.1179H90.0791C91.5252 9.1179 92.6271 8.8559 93.3846 8.33188C94.1421 7.79039 94.5208 6.95196 94.5208 5.81659C94.5208 4.68122 94.1593 3.82533 93.4362 3.24891C92.7304 2.67249 91.6544 2.38428 90.2082 2.38428H86.7995V9.1179Z" fill="white"/>
<path d="M105.604 18C104.365 18 103.28 17.7904 102.35 17.3712C101.421 16.952 100.637 16.3581 100.001 15.5895C99.3807 14.8035 98.9073 13.8603 98.5802 12.7598C98.2703 11.6594 98.1154 10.4367 98.1154 9.0917C98.1154 7.0655 98.4339 5.37991 99.0709 4.03493C99.7251 2.68996 100.62 1.68559 101.757 1.02183C102.893 0.340612 104.201 0 105.682 0C106.835 0 107.868 0.200873 108.781 0.60262C109.693 0.9869 110.476 1.57205 111.131 2.35808C111.785 3.12664 112.284 4.0786 112.628 5.21397C112.973 6.34935 113.145 7.64192 113.145 9.0917C113.145 10.4541 112.981 11.6856 112.654 12.786C112.327 13.8865 111.845 14.821 111.208 15.5895C110.571 16.3581 109.779 16.952 108.832 17.3712C107.903 17.7904 106.827 18 105.604 18ZM105.604 15.8777C106.758 15.8777 107.713 15.6157 108.471 15.0917C109.228 14.5502 109.788 13.7729 110.149 12.7598C110.528 11.7467 110.717 10.5153 110.717 9.0655C110.717 7.59825 110.519 6.34935 110.123 5.31878C109.727 4.27074 109.151 3.47598 108.393 2.9345C107.653 2.37555 106.732 2.09607 105.63 2.09607C104.563 2.09607 103.65 2.36681 102.893 2.9083C102.135 3.44978 101.55 4.23581 101.137 5.26638C100.741 6.27948 100.543 7.51092 100.543 8.9607C100.543 10.0786 100.655 11.0742 100.879 11.9476C101.102 12.8035 101.429 13.5284 101.86 14.1223C102.29 14.6987 102.815 15.1354 103.435 15.4323C104.072 15.7293 104.795 15.8777 105.604 15.8777Z" fill="white"/>
<path d="M113.019 17.8428L112.58 15.5895C112.752 15.6245 112.915 15.6507 113.07 15.6681C113.243 15.6681 113.363 15.6681 113.432 15.6681C114.207 15.6681 114.818 15.5371 115.265 15.2751C115.713 14.9956 116.023 14.5502 116.195 13.9389C116.384 13.31 116.479 12.4803 116.479 11.4498V0.340612H118.855V11.6332C118.855 13.0306 118.666 14.1921 118.287 15.1179C117.925 16.0437 117.366 16.7336 116.608 17.1878C115.868 17.6419 114.904 17.869 113.716 17.869C113.578 17.869 113.458 17.8603 113.354 17.8428C113.268 17.8428 113.156 17.8428 113.019 17.8428Z" fill="white"/>
<path d="M120.785 17.6332V0.340612H123.161V17.6332H120.785ZM122.076 17.6332V15.5371H132.406V17.6332H122.076ZM122.076 9.87773V7.88646H131.192V9.87773H122.076ZM122.076 2.43668V0.340612H132.406V2.43668H122.076Z" fill="white"/>
<path d="M140.331 17.9738C139.092 17.9738 137.99 17.7642 137.026 17.345C136.062 16.9083 135.252 16.2969 134.598 15.5109C133.944 14.7249 133.453 13.7904 133.126 12.7074C132.799 11.607 132.636 10.4017 132.636 9.0917C132.636 7.71179 132.808 6.47162 133.152 5.37118C133.496 4.25328 133.996 3.29258 134.65 2.48908C135.304 1.68559 136.096 1.07424 137.026 0.655023C137.972 0.218341 139.04 0 140.228 0C141.209 0 142.087 0.148472 142.862 0.445415C143.654 0.742358 144.317 1.16157 144.85 1.70306C145.384 2.22707 145.788 2.86463 146.064 3.61572C146.357 4.34935 146.503 5.16157 146.503 6.0524L144.308 6.41921C144.273 5.51092 144.084 4.74236 143.74 4.11354C143.395 3.46725 142.922 2.97817 142.319 2.64629C141.717 2.29694 141.002 2.12227 140.176 2.12227C139.47 2.12227 138.807 2.26201 138.188 2.54148C137.568 2.82096 137.026 3.24018 136.561 3.79913C136.096 4.35808 135.734 5.07424 135.476 5.9476C135.218 6.80349 135.089 7.80786 135.089 8.9607C135.089 10.4454 135.295 11.7031 135.709 12.7336C136.139 13.7467 136.75 14.524 137.542 15.0655C138.351 15.607 139.307 15.8777 140.409 15.8777C141.39 15.8777 142.208 15.6594 142.862 15.2227C143.516 14.786 144.015 14.1659 144.36 13.3624C144.704 12.5415 144.859 11.5633 144.824 10.4279L147.071 10.7686C147.106 11.7817 146.985 12.7249 146.71 13.5983C146.451 14.4716 146.038 15.2402 145.47 15.9039C144.919 16.5677 144.213 17.083 143.352 17.4498C142.492 17.7991 141.485 17.9738 140.331 17.9738Z" fill="white"/>
<path d="M151.556 17.6332V0.340612H153.932V17.6332H151.556ZM146.65 2.46288V0.340612H158.864V2.46288H146.65Z" fill="white"/>
<path d="M157.558 17.8078C157.26 17.8078 157.004 17.7521 156.792 17.6407C156.58 17.5293 156.416 17.3658 156.3 17.1501C156.187 16.9345 156.131 16.6685 156.131 16.3522C156.131 16.0324 156.187 15.7646 156.3 15.549C156.416 15.3333 156.58 15.1716 156.792 15.0638C157.004 14.9523 157.26 14.8966 157.558 14.8966C157.856 14.8966 158.113 14.9523 158.329 15.0638C158.544 15.1716 158.71 15.3333 158.826 15.549C158.942 15.7646 159 16.0324 159 16.3522C159 16.6685 158.942 16.9345 158.826 17.1501C158.71 17.3658 158.544 17.5293 158.329 17.6407C158.113 17.7521 157.856 17.8078 157.558 17.8078ZM157.558 17.4466C157.793 17.4466 157.991 17.4071 158.15 17.328C158.312 17.249 158.435 17.1286 158.518 16.9668C158.601 16.8015 158.642 16.5966 158.642 16.3522C158.642 16.1042 158.601 15.8994 158.518 15.7376C158.435 15.5759 158.312 15.4555 158.15 15.3764C157.991 15.2974 157.793 15.2578 157.558 15.2578C157.206 15.2578 156.94 15.3477 156.757 15.5274C156.575 15.7035 156.484 15.9784 156.484 16.3522C156.484 16.7224 156.575 16.9974 156.757 17.1771C156.94 17.3568 157.206 17.4466 157.558 17.4466ZM157.066 17.1393V15.5382H157.603C157.762 15.5382 157.891 15.5777 157.991 15.6568C158.09 15.7358 158.14 15.8562 158.14 16.018C158.14 16.1258 158.108 16.2175 158.045 16.2929C157.986 16.3684 157.889 16.4133 157.757 16.4277V16.4493C157.876 16.4565 157.959 16.4942 158.005 16.5625C158.055 16.6272 158.093 16.717 158.12 16.832L158.194 17.1393H157.871L157.821 16.8644C157.808 16.7745 157.783 16.7027 157.747 16.6487C157.71 16.5948 157.642 16.5679 157.543 16.5679H157.359V17.1393H157.066ZM157.359 16.3199H157.523C157.566 16.3199 157.613 16.3163 157.662 16.3091C157.712 16.2983 157.753 16.275 157.787 16.239C157.823 16.2031 157.841 16.1456 157.841 16.0665C157.841 15.9767 157.823 15.9138 157.787 15.8778C157.753 15.8383 157.717 15.8149 157.677 15.8077C157.637 15.7969 157.606 15.7916 157.583 15.7916H157.359V16.3199Z" fill="white"/>
</svg>
